<?xml version="1.0" encoding="UTF-8"?><svg id="a" xmlns="http://www.w3.org/2000/svg" xmlns:xlink="http://www.w3.org/1999/xlink" viewBox="0 0 512 512"><defs><style>.c{fill:url(#b);}</style><linearGradient id="b" x1="0" y1="256" x2="512" y2="256" gradientTransform="matrix(1, 0, 0, 1, 0, 0)" gradientUnits="userSpaceOnUse"><stop offset="0" stop-color="#00a8b5"/><stop offset=".09" stop-color="#07a7b0"/><stop offset=".22" stop-color="#1da7a3"/><stop offset=".39" stop-color="#41a78d"/><stop offset=".59" stop-color="#73a770"/><stop offset=".8" stop-color="#b2a64a"/><stop offset="1" stop-color="#f5a623"/></linearGradient></defs><path class="c" d="M447.08,267.8c-5.09,0-10.18,.11-15.27-.04-7.78-.23-13.02-5.13-12.91-11.85,.1-6.53,5.2-11.24,12.69-11.52,4.17-.15,8.36-.03,12.54-.04,2.96,0,5.92,0,9.02,0-1.88-27.59-8.6-52.69-20.74-76.56-3.36,1.92-6.14,3.64-9.05,5.13-6.24,3.18-12.9,1.43-16.17-4.13-3.31-5.63-1.54-12.15,4.47-16,2.86-1.83,5.86-3.45,9.13-5.35-15.13-22.64-33.57-41.22-56.15-56.07-1.95,3.33-3.51,6.2-5.27,8.94-3.9,6.06-10.32,7.88-15.97,4.65-5.76-3.29-7.48-10.16-4.06-16.6,1.51-2.84,3.19-5.59,4.99-8.74-24.12-12.08-49.23-18.98-76.61-20.63,0,7.1,.08,13.95-.02,20.8-.1,6.79-2.95,11.09-8.18,12.76-7.87,2.51-14.92-2.99-15.19-12.11-.21-7.03-.04-14.07-.04-21.45-27.39,1.8-52.62,8.5-76.58,20.74,1.93,3.37,3.66,6.14,5.15,9.05,3.18,6.2,1.38,12.9-4.19,16.15-5.63,3.28-12.13,1.48-16-4.54-1.83-2.85-3.44-5.85-5.32-9.07-22.69,15.13-41.22,33.6-56.09,56.09,3.24,1.92,5.93,3.42,8.54,5.07,6.41,4.05,8.38,10.48,5.04,16.26-3.42,5.94-10.27,7.43-17.09,3.68-2.65-1.46-5.26-2.99-7.87-4.48-10.58,16.91-20.94,55.11-20.64,76.42,6.83,0,13.68-.08,20.53,.02,6.75,.1,11.07,2.99,12.71,8.23,2.46,7.87-3.06,14.88-12.19,15.14-7.03,.2-14.06,.04-22.23,.04,2.4,14.21,4.65,27.49,7.09,41.92,18.08-9.91,36.52-6.88,54.51-6.92,92.51-.21,185.01-.15,277.52-.05,16.41,.02,33.15-2.19,49.72,7.02,2.42-14.54,4.65-27.91,6.99-41.97-3.22,0-5.01,0-6.8,0Zm-174.83,4.84c-9.65,9.46-25.06,8.83-33.81-1.7-2.17-2.61-4.36-3.2-7.43-3.18-21.27,.09-42.53,.05-63.8,.04-1.81,0-3.65,.04-5.44-.22-6.22-.92-10.37-5.51-10.44-11.37-.07-6.03,4.29-10.83,10.73-11.67,1.79-.23,3.63-.16,5.44-.17,21.27,0,42.53,0,63.8-.01,5.93,0,12.96-7.05,12.96-12.98,.01-29.62-.01-59.25,.02-88.87,0-7.98,3.39-12.94,9.35-14.03,7.98-1.46,13.98,3.98,14.05,13.11,.12,14.9,.03,29.8,.03,44.71,0,15.08-.13,30.17,.14,45.25,.04,2.3,1.38,5.19,3.09,6.74,10.35,9.37,11.07,24.79,1.3,34.37Zm143.32,53.24c-53.25,0-106.5,0-159.75,0-53.43,0-106.86-.02-160.3,0-22.65,.01-37.15,14.41-37.2,37.08-.07,37.25-.06,74.5,0,111.75,.04,22.92,14.53,37.35,37.57,37.36,106.68,.03,213.37,.03,320.05,0,23.34,0,37.72-14.39,37.75-37.73,.05-36.89,.05-73.77,0-110.66-.03-23.73-14.26-37.81-38.12-37.81Zm-252.65,81.51c-.57,13.83-10.45,23.05-24.45,23.17-7.08,.06-14.16,.01-21.79,.01v23.17c10.24,0,20.19-.02,30.13,.02,2.17,0,4.39,0,6.5,.4,5.79,1.1,9.72,5.97,9.59,11.54-.13,5.41-3.95,10.75-9.53,10.91-14.13,.39-28.34,.69-42.4-.49-9.72-.81-17.16-10.34-17.56-20.17-.37-9.07-.39-18.17-.02-27.24,.47-11.55,9.92-20.75,21.59-21.19,7.94-.3,15.9-.06,24.22-.06v-23.52c-2,0-3.93,0-5.86,0-9.81-.03-19.63,.14-29.43-.17-6.21-.2-10.44-4.93-10.61-10.96-.18-6.22,4.07-11.69,10.32-11.85,13.07-.33,26.2-.67,39.23,.18,11.47,.75,19.63,10.66,20.09,22.81,.3,7.8,.32,15.63,0,23.43Zm93.05,56.62c-.02,9.41-7.25,15.18-15.32,12.35-5.47-1.92-7.85-6.09-7.83-11.79,.03-11.06,0-22.11,0-34.01-7.01,0-13.65,0-20.28,0-17.08-.02-26.33-9.2-26.36-26.16-.01-10.17-.06-20.35,.02-30.52,.06-7.81,4.77-13.05,11.55-13.09,6.81-.03,11.5,5.11,11.58,12.99,.1,10.88,.03,21.76,.03,33.12h23.46c0-9.43,0-18.64,0-27.86,0-2.54-.08-5.1,.13-7.62,.5-5.83,4.9-10.17,10.56-10.59,5.77-.44,11.08,3.62,12.24,9.44,.24,1.23,.23,2.53,.23,3.8,.01,29.98,.05,59.95-.02,89.93Zm69.38-99.71c-6.96,34.83-13.96,69.65-20.96,104.48-.79,3.91-1.4,7.87-2.53,11.68-1.58,5.29-5.44,7.91-9.83,8.11-8.63,0-13.85-6.16-12.36-13.95,4.12-21.54,8.47-43.03,12.75-64.54,3.25-16.35,6.48-32.71,9.82-49.05,1.75-8.55,6.8-12.79,13.55-11.71,7.13,1.15,11.1,7.28,9.56,14.98Zm86.69,28.08c-9.26,25.55-18.92,50.96-28.54,76.38-2.64,6.97-8.96,9.88-15.26,7.52-6.19-2.32-9-8.76-6.43-15.72,8.73-23.62,17.62-47.19,26.44-70.78,.62-1.66,1.17-3.34,2.04-5.84-9.92,0-18.99,.07-28.06-.02-7.91-.08-13.09-4.68-13.16-11.44-.07-6.97,5.27-11.65,13.49-11.7,9.08-.05,18.16-.1,27.23,0,17.14,.2,28.1,15.44,22.25,31.59Zm66.23-9.77c-.54-.02-1.07-.05-1.61-.07,0-9.18,.31-18.38-.09-27.54-.4-9.25-3.94-17.58-8.53-25.58-1.16-2.02-1.63-5.18-1-7.4,21.37-74.53,9.21-143.03-38.79-203.95-36.96-46.91-86.06-74.32-145.53-81.13-95.23-10.91-182.18,35.98-224.73,121.17-25.96,51.97-29.82,106.36-13.46,162.1,1.15,3.91,1.33,6.89-1.09,10.56-6.27,9.5-8.55,20.31-8.6,31.61-.03,6.7,0,13.4,0,20.68C-8.77,315.89-22.31,190.02,59.07,92.8,147.24-12.52,299.64-30.71,408.61,50.71c111.07,82.99,129.9,228.95,69.66,331.9Z"/></svg>