<?xml version="1.0" encoding="UTF-8"?><svg id="a" xmlns="http://www.w3.org/2000/svg" xmlns:xlink="http://www.w3.org/1999/xlink" viewBox="0 0 512 512"><defs><style>.c{fill:url(#b);}</style><linearGradient id="b" x1="-10.13" y1="256" x2="500.26" y2="256" gradientTransform="matrix(1, 0, 0, 1, 0, 0)" gradientUnits="userSpaceOnUse"><stop offset="0" stop-color="#00a8b5"/><stop offset=".09" stop-color="#07a7b0"/><stop offset=".22" stop-color="#1da7a3"/><stop offset=".39" stop-color="#41a78d"/><stop offset=".59" stop-color="#73a770"/><stop offset=".8" stop-color="#b2a64a"/><stop offset="1" stop-color="#f5a623"/></linearGradient></defs><path class="c" d="M499.26,146.99c-21.17,45.49-42.2,91.06-64.47,136.01-6.53,13.17-15.95,25.24-25.64,36.44-22.05,25.49-39.06,53.68-50.53,85.31-4.66,12.84-9.82,25.51-14.78,38.24-.62,1.59-1.38,3.12-2.23,5.05-54.37-25.31-108.47-50.5-162.86-75.83,8.86-16.09,17.14-31.89,26.12-47.27,15.49-26.56,17.85-53.87,7.18-82.78-10.42-28.23-19.96-56.79-29.87-85.21-4.04-11.59,1.07-18.34,13.33-17.49,9.08,.63,15.97,5.19,21.45,12.21,8.22,10.51,16.45,21.02,24.73,31.49,7.57,9.57,16.44,8.52,21.64-2.6,20.96-44.83,41.92-89.67,62.78-134.55,2.55-5.48,5.93-9.85,11.99-11.32,6.6-1.59,12.51,0,16.91,5.31,4.51,5.43,5.16,11.69,2.24,18.04-7.66,16.67-15.51,33.24-23.28,49.86-6.96,14.89-13.91,29.79-20.86,44.69-2.01,4.31-1.79,8.44,1.2,12.2,2.73,3.43,6.44,4.59,10.69,3.88,4.59-.78,6.99-3.98,8.84-7.96,12.04-25.89,24.15-51.75,36.24-77.61,5.42-11.6,10.8-23.22,16.31-34.78,4.57-9.6,14.02-13.42,22.73-9.33,8.69,4.07,11.86,13.81,7.38,23.43-17.3,37.18-34.71,74.32-51.98,111.52-1.2,2.59-2.2,5.58-2.19,8.38,.02,5.02,4.07,9.01,9.08,9.96,5.03,.95,9.67-1.69,12.35-7.39,9.73-20.67,19.37-41.37,29.05-62.06,4.77-10.19,9.51-20.39,14.32-30.55,4.7-9.95,14.17-13.91,23.02-9.69,8.78,4.18,11.71,13.98,7.06,23.96-13.98,29.95-28.01,59.88-41.96,89.84-1.15,2.47-2.23,5.14-2.54,7.81-.58,4.95,2.5,9.35,7.01,10.96,4.79,1.71,10,.13,12.88-4.15,1.25-1.85,2.15-3.95,3.1-5.98,10.93-23.35,21.8-46.74,32.77-70.07,3.37-7.16,9.45-10.93,16.5-10.35,7.05,.57,12.42,4.06,14.37,10.87,1.03,3.6,1.41,8.33-.09,11.54ZM85.22,365.04c-.58,11.53-1.46,23.05-2.25,35.22,9.88,0,19.3-.82,28.5,.22,10.46,1.18,16.62-2.2,20.52-12.05,3.65-9.25,10.97-15.32,20.58-18.59,1.69-.58,3.31-2.4,4.23-4.05,10.39-18.58,20.66-37.24,30.92-55.89,10.01-18.19,11.42-37.03,4.53-56.62-10.62-30.18-21.08-60.42-31.63-90.63-3.91-11.21-2.73-21.69,3.82-31.72,1.57-2.41,2.67-5.61,2.69-8.46,.21-23.21,.12-46.43,.12-69.64,0-11.78,.13-23.56-.07-35.34-.16-9.59-7.23-16.44-16.5-16.45-9.99,0-16.73,7.29-16.74,18.46-.05,41.23,0,82.46-.04,123.7,0,7.95-4.39,12.97-11.02,12.97-6.61,0-11.05-5.14-11.08-12.97-.04-12.65-.01-25.29-.01-37.94,0-21.66,.1-43.31-.04-64.97-.08-12.78-12.34-20.88-23.52-15.63-7.04,3.31-9.82,9.21-9.8,16.87,.07,49.72,.04,99.44,.03,149.16,0,12.23-7.57,16.97-18.42,11.54-12.08-6.05-24.17-12.09-36.21-18.23-7.27-3.7-14.73-4.73-22.66-2.5-13.81,3.89-13.82,14.9-6.07,22.56,22.44,22.18,44.2,45.04,66.23,67.63,12.16,12.47,20.12,27.15,23.85,44.18,3.58,16.41,.89,32.79,.06,49.17Zm249.22,104.23c-4.13-2.17-8.43-4.03-12.67-6.01-50.69-23.59-101.38-47.19-152.08-70.76-8.62-4.01-13.47-2.4-18.06,5.84-2.86,5.14-5.71,10.29-8.5,15.46-4.4,8.17-2.43,14.09,6.1,18.07,55.23,25.74,110.47,51.46,165.73,77.14,2.15,1,4.52,1.54,5.77,1.96,5.99-.21,9.44-2.54,11.23-6.95,2.8-6.88,5.55-13.8,8.03-20.8,2.14-6.03,.11-10.98-5.56-13.96ZM190.18,116.95c11.64-.17,22.34,2.66,31.89,9.02,.46-.73,.78-1,.78-1.26,.03-28.54,.18-57.09-.05-85.63-.06-6.93-3.9-12.13-10.48-14.79-11.04-4.45-22.53,3.43-22.61,15.77-.17,24.57-.06,49.13-.04,73.7,0,.99,.31,1.98,.51,3.19ZM118.47,422.36c-11.85,0-23.43,0-35,0-1.38,0-2.79-.06-4.15,.13-5.08,.71-8.79,4.22-9.4,9.59-.83,7.38-1.41,14.81-1.75,22.23-.34,7.42,4.05,12.36,11.56,12.4,29.61,.18,59.22,.07,88.83,.07,.12-.38,.24-.76,.36-1.14-8.23-3.87-16.31-8.13-24.74-11.53-14.44-5.82-24.09-15.26-25.72-31.76ZM249.98,156.72c9.28-19.92,18.42-39.5,27.52-59.1,.49-1.06,.88-2.3,.89-3.45,.05-11.08,.33-22.17-.08-33.24-.42-11.02-11.59-18.26-21.99-14.76-6.97,2.35-11.18,8.61-11.19,16.96-.04,26.66,.17,53.33-.17,79.99-.07,5.34-.69,10.19,5.03,13.6Z"/></svg>