<?xml version="1.0" encoding="UTF-8"?><svg id="a" xmlns="http://www.w3.org/2000/svg" xmlns:xlink="http://www.w3.org/1999/xlink" viewBox="0 0 512 512"><defs><style>.c{fill:url(#b);}</style><linearGradient id="b" x1="0" y1="256" x2="512" y2="256" gradientTransform="matrix(1, 0, 0, 1, 0, 0)" gradientUnits="userSpaceOnUse"><stop offset="0" stop-color="#00a8b5"/><stop offset=".09" stop-color="#07a7b0"/><stop offset=".22" stop-color="#1da7a3"/><stop offset=".39" stop-color="#41a78d"/><stop offset=".59" stop-color="#73a770"/><stop offset=".8" stop-color="#b2a64a"/><stop offset="1" stop-color="#f5a623"/></linearGradient></defs><path class="c" d="M99.33,154.62c14.14-5.59,28.64-10.44,42.35-16.95,22.94-10.89,45.28-23.03,68.05-34.3,15.16-7.5,30.87-13.61,48.24-13.07,16.35,.51,31.2,6.45,45.56,13.58,23.52,11.67,46.67,24.1,70.37,35.4,12.48,5.95,25.78,10.17,38.8,15.21,2.31-4.96,3.99-9.06,6.08-12.95,11.32-21.04,33.69-30.88,56.67-25.05,22.15,5.62,36.5,24.4,36.43,48.21-.05,17.32,.65,34.75-1,51.94-4.64,48.52-27.69,86.82-67.01,115.59-2.84,2.07-5.36,5.17-6.87,8.33-5.26,11.05-13.48,19.44-23.05,26.59-25.06,18.74-53.51,30.67-83.01,40.3-24.41,7.96-49.25,14.26-75.12,14.26-24.82,0-48.7-5.94-72.17-13.4-28.24-8.98-55.51-20.24-80.07-37.13-12.86-8.85-24.45-18.98-30.02-34.32-.47-1.28-1.9-2.35-3.11-3.21C24.06,300.86,.67,256.05,.07,199.38c-.12-11.67-.06-23.34,0-35.01,.1-23.45,14.34-42.18,36.29-47.81,22.82-5.86,45.24,3.76,56.52,24.39,2.21,4.03,3.94,8.32,6.46,13.68Zm275.49,119.59c-79.16,31.03-158.42,30.77-237.67,.01-3.81,10.59-7.19,19.99-10.72,29.82,8.14,2.59,15.58,5.18,23.14,7.31,33.29,9.4,67.02,16.8,101.73,17.61,35.69,.83,70.31-6.65,104.56-15.8,9.87-2.63,19.56-5.91,29.75-9.02-3.64-10.1-6.99-19.39-10.8-29.94Zm-248.29-36.42c1.66,.7,2.57,1.17,3.53,1.48,5.22,1.7,10.41,3.49,15.68,5.02,34.54,10.09,69.58,18.02,105.68,18.73,39.7,.78,78.06-8.03,115.92-19.08,6.01-1.75,11.91-3.86,18.21-5.91-3.61-9.99-6.97-19.26-10.76-29.72-79.24,30.96-158.49,30.75-237.65,0-3.8,10.55-7.15,19.84-10.62,29.48Zm-54.6,57.72c.19-1.72,.32-2.36,.32-3,.01-38.59,.53-77.19-.4-115.76-.2-8.35-4.85-16.96-8.87-24.73-3.09-5.97-12.55-7.61-20-5.26-6.83,2.15-11.89,8.04-11.85,15.2,.09,18.68-.66,37.48,1.22,56.01,3.07,30.23,16.87,55.73,39.59,77.54Zm367.78-.15c17.82-14.96,32.68-40.93,38.16-65.71,5.03-22.73,2.79-45.78,2.85-68.71,.02-7.09-5.65-12.6-12.72-14.46-7.67-2.02-15.95,.31-19.82,6.26-5.12,7.86-8.37,16.58-8.41,26.04-.14,36.88-.06,73.75-.06,110.63,0,1.66,0,3.32,0,5.94Z"/></svg>