<?xml version="1.0" encoding="utf-8"?>
<!-- Generator: Adobe Illustrator 26.1.0, SVG Export Plug-In . SVG Version: 6.00 Build 0)  -->
<svg version="1.1" id="Layer_1" xmlns="http://www.w3.org/2000/svg" xmlns:xlink="http://www.w3.org/1999/xlink" x="0px" y="0px"
	 viewBox="0 0 512 512" style="enable-background:new 0 0 512 512;" xml:space="preserve">
<style type="text/css">
	.st0{fill:#00A8B5;}
	.st1{fill:#CBD5E0;}
	.st2{fill:#38A169;}
	.st3{fill:#FEDAD2;}
	.st4{fill:#F5A623;}
	.st5{fill:#F3F3F3;}
	.st6{fill:#B9C9CD;}
	.st7{fill:#FBC8BF;}
	.st8{fill:#B8D4F9;}
	.st9{fill:#AAC3C7;}
	.st10{fill:#E9E9E9;}
	.st11{fill:#7AD5EF;}
	.st12{fill:#7BD5EF;}
	.st13{fill:#969CBD;}
	.st14{fill:#B28A65;}
	.st15{fill:#B08965;}
	.st16{fill:#A07D5D;}
	.st17{fill:#FAFAFA;}
</style>
<g>
	<path class="st0" d="M106.4,371.7c-3-2.8-6-5.7-9-8.5c-3.6-3.4-4-6.9-1.2-11.1c5.7-8.6,11.2-17.3,16.9-25.8c1.5-2.2,2-4.1,0.8-6.8
		c-3.5-7.9-6.7-15.9-9.9-23.9c-1-2.4-2.3-3.5-4.9-4c-10.1-2-20.1-4.4-30.1-6.4c-5.1-1-7.4-3.8-7.4-8.9c0-20,0-39.9,0-59.9
		c0-5.2,2.3-7.9,7.4-8.9c10.1-2,20.1-4.4,30.1-6.3c2.6-0.5,4-1.6,4.9-4c3.2-8,6.4-16,9.9-23.9c1.2-2.7,0.7-4.5-0.8-6.8
		c-5.6-8.4-11.1-16.9-16.5-25.5c-3.3-5.2-3.1-7.4,1.2-11.8c13.9-14,28-28,41.9-42c3.6-3.7,7.2-4.1,11.5-1.2
		c6.5,4.4,13.2,8.6,20.2,13.1C168.4,46.4,212.3,6,260.7,8.6c46.4,2.5,82.9,41.9,80.5,90.8c5.5-3.6,10.6-6.9,15.6-10.1
		c11.1-7.2,11.1-7.2,20.3,2c12.4,12.5,24.9,24.9,37.3,37.4c5.1,5.1,5.3,7,1.5,13c-5.5,8.5-10.9,17-16.5,25.5c-1.3,2-1.5,3.6-0.5,5.9
		c3.5,8.1,6.8,16.2,10.1,24.3c1,2.5,2.5,3.4,5.1,3.9c9.8,1.9,19.5,4,29.2,6.1c6.8,1.5,8.2,3.3,8.2,10.3c0,19.1,0,38.2,0,57.4
		c0,7.1-1.3,8.8-8.1,10.3c-9.9,2.2-19.7,4.4-29.6,6.3c-2.7,0.5-3.9,1.8-4.8,4.2c-3.2,8-6.5,16-9.9,23.9c-1,2.4-0.5,4.1,0.6,6.4
		c3.6,7.3,8,10.8,17.2,9.6c12.1-1.5,23.4,3.1,33.9,9.3c13.1,7.8,26.3,15.4,39.4,23.2c8.4,4.9,11.5,11.3,9.4,19.3
		c-2,7.6-8.4,12-17.9,12c-12.1,0-24.2,0.1-36.3-0.1c-3.4,0-4.7,1-4.6,4.6c0.2,10.1,0.3,20.3,0,30.4c-0.1,4.2,1.6,5,5.3,5
		c11.9-0.2,23.9-0.1,35.8-0.1c9.5,0,15.5,4,17.6,11.5c2.3,8-0.9,14.7-9.5,19.8c-13.4,7.9-26.8,15.9-40.3,23.6
		c-27.3,15.7-57.1,11.1-78.7-11.8c-5.2-5.6-9.7-13.1-16.1-15.9c-6.4-2.8-15-0.9-22.6-0.9c-90.8,0-181.6,0-272.4,0
		c-25.3,0-44.5-17.7-46.8-42.9c-2.2-23.5,15.9-46.3,39.4-48.9c15.9-1.8,31.8-0.4,47.8-0.7c1.9,0,3.9,0,5.8,0
		C106,372.6,106.2,372.2,106.4,371.7z"/>
	<path class="st0" d="M172.3,38.4c-3.8,0.1-7-3-7.2-6.8c-0.1-3.8,3-7.1,6.7-7.2c3.8-0.1,6.9,2.9,7.1,6.8
		C179.1,35.2,176.2,38.3,172.3,38.4z"/>
	<path class="st0" d="M340.5,38.4c-3.8-0.1-6.8-3.2-6.7-7.1c0.1-3.9,3.2-6.9,7-6.8c3.8,0.1,6.9,3.3,6.8,7.1
		C347.5,35.4,344.3,38.5,340.5,38.4z"/>
	<path class="st0" d="M150.4,48.4c-3.7,0.1-7.1-3-7.2-6.7c-0.1-3.7,3-7,6.7-7.2c3.8-0.2,7,2.8,7.1,6.7
		C157.1,45.1,154.2,48.3,150.4,48.4z"/>
	<path class="st0" d="M362.5,48.4c-3.8-0.1-6.8-3.2-6.7-7.1c0.1-3.9,3.2-6.9,7-6.8c3.8,0.1,6.9,3.4,6.8,7.1
		C369.5,45.4,366.2,48.5,362.5,48.4z"/>
	<path class="st0" d="M57,143.1c-0.1,3.7-3.4,7-7.1,6.9c-3.7-0.1-6.8-3.3-6.8-7.1c0-4,3-6.8,7-6.8C53.9,136.2,57,139.4,57,143.1z"/>
	<path class="st0" d="M109.8,61.2c3.9,0,7,3,7.1,6.8c0.1,3.7-3.2,7-6.9,7.1c-3.7,0.1-6.9-3.1-7-6.9
		C102.9,64.2,105.8,61.2,109.8,61.2z"/>
	<path class="st0" d="M402.7,75c-3.7-0.1-6.9-3.4-6.8-7.2c0.1-3.8,3.3-6.8,7.2-6.7c3.9,0.1,6.8,3.1,6.7,7
		C409.7,72,406.4,75.1,402.7,75z"/>
	<path class="st0" d="M469.6,142.9c0,3.8-3,7.1-6.8,7.1c-3.7,0.1-7-3.2-7.1-6.9c-0.1-3.7,3.1-6.9,6.9-7
		C466.6,136.1,469.6,139,469.6,142.9z"/>
	<path class="st0" d="M494,260.1c0,3.8-3.2,6.9-7,6.9c-3.9,0-6.8-3-6.8-7c0-3.9,3.1-7,6.9-7C490.8,253.1,494,256.3,494,260.1z"/>
	<path class="st0" d="M25.7,253.1c3.8,0,6.8,3.1,6.8,7c0,3.9-3,6.9-6.9,6.9c-3.8,0-6.9-3.2-6.9-7C18.8,256.3,22,253.1,25.7,253.1z"
		/>
	<path class="st0" d="M486.7,188.2c0,3.9-3,6.9-6.9,6.9c-3.8,0-7-3.2-7-7c0-3.7,3.3-7,7-7C483.7,181.2,486.7,184.3,486.7,188.2z"/>
	<path class="st0" d="M32.9,181.2c3.7,0,7,3.2,7,7c0,3.7-3.2,7-7,7c-3.9,0-6.8-3-6.8-7C26.1,184.3,29.1,181.2,32.9,181.2z"/>
	<path class="st0" d="M40.3,307.9c-0.1,3.8-3.4,6.9-7.1,6.8c-3.7-0.1-6.9-3.5-6.8-7.2c0.1-3.8,3.4-6.8,7.2-6.7
		C37.5,300.9,40.4,304.1,40.3,307.9z"/>
	<path class="st0" d="M486.3,307.8c-0.1,3.7-3.4,7-7.1,6.9c-3.7,0-6.9-3.3-6.8-7.1c0-3.9,3.1-6.9,7-6.8
		C483.2,300.9,486.4,304.1,486.3,307.8z"/>
	<path class="st0" d="M47.9,330.6c0.1,3.7-3.2,7-6.9,7.1c-3.7,0.1-6.9-3.1-6.9-6.9c0-4,2.8-6.9,6.8-7
		C44.6,323.8,47.9,326.9,47.9,330.6z"/>
	<path class="st0" d="M50.9,359.7c-3.8,0.1-6.9-3-6.9-6.9c0-3.9,2.9-7,6.8-7c3.8-0.1,7,3.1,7.1,6.9
		C57.8,356.4,54.7,359.7,50.9,359.7z"/>
	<path class="st0" d="M494.1,236.4c-0.3,3.7-3.8,6.8-7.4,6.5c-3.8-0.3-6.6-3.6-6.4-7.4c0.2-3.9,3.4-6.7,7.3-6.4
		C491.4,229.2,494.4,232.7,494.1,236.4z"/>
	<path class="st0" d="M484.4,277.1c3.7,0,7,3.2,7,6.9c0,3.8-3,6.9-6.9,7c-3.8,0-7-3-7-6.8C477.5,280.4,480.7,277.1,484.4,277.1z"/>
	<path class="st0" d="M92,91.3c-3.7,0-6.9-3.2-6.9-7c0-3.8,3.2-6.9,6.9-6.9c3.8,0,6.9,3.2,6.9,6.9C99,88.1,95.8,91.3,92,91.3z"/>
	<path class="st0" d="M420.7,77.4c3.8,0,7,3.2,7,6.9c0,3.7-3.2,7-6.9,7c-3.7,0-6.9-3.2-6.9-7C413.8,80.5,416.9,77.4,420.7,77.4z"/>
	<path class="st0" d="M437.1,95.4c3.7,0.2,6.8,3.5,6.6,7.3c-0.2,3.8-3.5,6.8-7.3,6.6c-3.7-0.2-6.8-3.6-6.6-7.3
		C429.9,98.3,433.4,95.2,437.1,95.4z"/>
	<path class="st0" d="M471.6,337.7c-3.7-0.1-6.9-3.5-6.8-7.2c0.1-3.7,3.4-6.8,7.1-6.8c3.9,0.1,6.8,3.1,6.7,7.1
		C478.6,334.7,475.4,337.8,471.6,337.7z"/>
	<path class="st0" d="M68.9,122.1c-0.1,3.7-3.4,7-7.1,6.9c-3.7-0.1-6.8-3.3-6.8-7.1c0.1-3.9,3-6.8,7-6.8
		C65.8,115.2,69,118.4,68.9,122.1z"/>
	<path class="st0" d="M443.8,121.9c0.1-3.7,3.4-6.8,7.2-6.7c3.9,0.1,6.8,3.1,6.7,7c-0.1,3.8-3.3,7-7,6.8
		C447,128.9,443.7,125.5,443.8,121.9z"/>
	<path class="st0" d="M47.2,165.1c0,3.8-3.2,7-6.9,7c-3.7,0-7-3.2-7-6.9c0-3.8,3.2-7,6.9-7C44,158.2,47.2,161.3,47.2,165.1z"/>
	<path class="st0" d="M472.4,172.1c-3.7,0-6.9-3.2-6.9-7c0-3.8,3.2-6.9,7-6.9c3.8,0,6.9,3.2,6.9,7
		C479.4,168.9,476.1,172.1,472.4,172.1z"/>
	<path class="st0" d="M83,102.5c-0.1,3.7-3.4,6.9-7.1,6.8c-3.8-0.1-6.8-3.3-6.7-7.1c0.1-3.8,3.4-6.9,7.1-6.8
		C79.9,95.5,83.1,98.8,83,102.5z"/>
	<path class="st0" d="M25.5,229c3.9,0,6.9,2.9,6.9,6.9c0,3.8-3.1,7-6.8,7c-3.7,0-7-3.2-7-6.9C18.6,232.2,21.8,229,25.5,229z"/>
	<path class="st0" d="M28.3,277.1c3.7,0,6.9,3.2,7,7c0,3.8-3.1,6.9-6.9,6.9c-3.8,0-7-3.1-7-6.9C21.4,280.4,24.6,277.1,28.3,277.1z"
		/>
	<path class="st0" d="M390.4,53.6c0,3.8-3,6.9-6.9,6.9c-3.9,0-6.9-2.9-6.9-6.8c0-3.8,3.1-7.1,6.8-7.1
		C387,46.6,390.3,49.9,390.4,53.6z"/>
	<path class="st0" d="M35,211.9c-0.1,3.7-3.4,7-7.1,6.9c-3.7,0-6.8-3.3-6.8-7.1c0-4,2.9-6.8,6.9-6.8C31.9,205,35.1,208.2,35,211.9z"
		/>
	<path class="st0" d="M484.6,205c4,0,6.9,2.8,6.9,6.8c0,3.8-3,7-6.8,7.1c-3.7,0-7-3.2-7.1-6.9C477.7,208.2,480.8,205,484.6,205z"/>
	<path class="st0" d="M129.1,46.7c3.7-0.1,6.9,3.1,7,6.8c0.1,3.9-2.8,7-6.7,7.1c-3.8,0.1-7-2.9-7.1-6.7
		C122.3,50.2,125.5,46.8,129.1,46.7z"/>
	<path class="st1" d="M263.3,366.9c15.6-1.9,31-4.8,45.1-12.1c37.3-19.3,60.5-49.3,66.5-91.2c5.8-40.6-6.8-75.4-35.9-104.2
		c-2.2-2.2-2.9-3.1,0-5.4c11.2-8.9,13.9-24.1,6.7-36.6c-1.5-2.6-1.5-3.7,1.1-5.3c5.5-3.3,10.9-6.9,16.2-10.6
		c2.3-1.6,3.6-1.2,5.5,0.7c10.6,10.8,21.3,21.5,32,32.1c1.9,1.9,1.9,3.1,0.5,5.3c-5.4,8-10.4,16.1-15.8,24.1
		c-2.2,3.3-2.6,6.3-0.9,10.1c4.7,10.6,9.2,21.2,13.3,32c1.8,4.8,4.7,7.2,9.5,8.1c8.6,1.6,17.1,3.5,25.6,5.1c3.5,0.7,5.2,1.9,5.1,6
		c-0.3,14.5-0.2,28.9-0.1,43.4c0,3-0.7,4.3-3.9,4.8c-8.7,1.6-17.3,4-26.1,5.4c-5.3,0.9-8.4,3.3-10.3,8.5c-4,10.7-8.4,21.1-13.1,31.5
		c-1.8,4-1.4,7.1,1.1,10.6c2.5,3.5,4.6,7.3,6.9,10.9c-3.5,2.2-7.1,4.2-10.5,6.5c-9.2,6.3-15.7,15.2-23.4,23
		c-2.5,2.6-4.9,3.7-8.6,3.7c-72.7-0.1-145.4-0.1-218.1,0c-3.5,0-5.9-1-8.2-3.5c-3.6-3.9-7.3-7.7-11.3-11.3c-2.3-2-2-3.4-0.4-5.7
		c5.4-8,10.4-16.1,15.7-24.1c2.1-3.2,2.5-6.1,1-9.7c-4.7-10.9-9.3-21.9-13.6-32.9c-1.7-4.4-4.6-6.5-9-7.4
		c-9.2-1.8-18.3-4.1-27.5-5.8c-2.9-0.5-3.4-1.7-3.3-4.2c0.1-14.8,0.2-29.6-0.1-44.4c-0.1-3.9,1.7-4.7,4.6-5.4c9.3-2,18.6-4.1,28-5.9
		c3.5-0.7,5.5-2.6,6.8-5.7c4.7-11.5,9.4-22.9,14.3-34.2c1.5-3.5,1-6.3-1-9.3c-5.4-8.2-10.6-16.5-16.1-24.5c-1.5-2.3-1.3-3.5,0.5-5.3
		c10.8-10.6,21.4-21.3,32-32.1c1.9-1.9,3.2-2.2,5.5-0.6c5.4,3.8,11,7.3,16.6,10.9c1.8,1.2,2.3,1.9,1,4.2c-8,14.2-5.5,27.4,7,38.1
		c2.1,1.7,1.7,2.5,0,4.1c-19.5,18.2-32,40.6-36.2,66.9c-6.6,41.1,4.6,77.1,34.2,106.7c19.8,19.7,43.8,31,71.6,33.7
		c1.8,0.2,3.6,0.7,5.4,1C254.1,367.5,258.7,367.5,263.3,366.9z"/>
	<path class="st1" d="M106,426.5c2-0.1,3.9-0.3,5.9-0.3c53.7,0,107.3,0,161,0c1.3,0,2.7,0,4,0c3.6,0,7.2-0.6,8.3-4.7
		c1.2-4.3-0.7-7.4-4.9-9c-1.8-0.7-3.6-0.3-5.4-0.3c-54.4,0-108.9,0-163.3,0c-6.8,0-6,0.7-6-6.2c0-5.2,0.1-10.3,0-15.5
		c0-2.3,0.6-3.4,3.1-3.2c1.3,0.1,2.7,0,4,0c80.5,0,161,0,241.5,0c2,0,4,0.4,5.9-0.4c8-6.5,14.6-14.5,21.7-21.9
		c10-10.5,22-16.2,36.6-16c7.9,0.1,15.3,2.3,22.2,6.2c14.3,8.3,28.5,16.6,42.8,25c1.3,0.8,3.4,1.4,3,3.5c-0.5,2.4-2.6,2.1-4.4,2.1
		c-12.8,0-25.6,0-38.3,0c-9.5,0-16.4,6.5-16.7,16c-0.3,11.8-0.3,23.6,0,35.4c0.2,9.1,6.8,15.5,15.9,15.7c12.1,0.2,24.2,0.1,36.3,0.1
		c1.2,0,2.3,0,3.5,0c1.6,0,3.2,0.5,3.6,2c0.5,1.8-1.2,2.6-2.4,3.3c-6.4,3.8-12.8,7.5-19.2,11.3c-7,4.1-14,8.2-21,12.3
		c-22.5,13.1-44.4,10.1-62.5-8.7c-5.4-5.6-12.7-10.6-15.4-17.3c-2.7-6.6-0.7-15.1-0.7-22.7c0-4.2,0.1-8.3,0-12.5c-0.1-4.9-3-8-7-8
		c-4,0-6.8,3.1-6.9,8.1c-0.1,8.6-0.3,17.3,0.1,25.9c0.2,4.2-1.1,5.1-5.1,5.1c-73-0.1-146-0.1-219.1-0.1c-7,0-13.9-0.1-20.9-0.2
		C105.2,443.2,105.2,434.8,106,426.5z"/>
	<path class="st2" d="M200.8,283c-1.3-4.1-3.7-6.9-8.3-5.9c-4.6,0.9-5.5,4.7-5.5,8.8c0,13.5,0,26.9,0,41c-4.5-3-7.8-6.8-10.9-10.4
		c-3.2-3.8-6.2-7.8-9-11.9c-6.6-9.6-11.2-19.7-9.7-32c0.7-6.2,0.4-12.6,0.1-18.9c-0.7-12.3,4.7-21.4,14.1-28.6
		c10.6-8,22.9-12.3,35.5-15.8c2.5-0.7,3.3,0.3,4,2.7c3.7,12.8,7.7,25.6,11.5,38.4c2.7,8.9,7.4,10.2,14.3,4
		c6.1-5.4,12.3-10.7,18.2-16.3c2.4-2.2,3.8-2,6.1,0.1c6.2,5.8,12.6,11.3,18.9,16.9c5.6,5,10.9,3.6,13.1-3.6
		c3.9-12.8,7.7-25.6,11.3-38.4c0.9-3.1,2.2-4,5.4-3c12,3.8,23.8,8.1,33.6,16.4c7.8,6.5,12.2,14.6,12,25.1c-0.2,10.5,0,21-0.1,31.4
		c0,1.6-0.1,3.4-0.8,4.9c-6.3,15-15.6,27.9-28.7,39.4c0-6.2,0-11.6,0-17c0-8.1,0-16.3,0-24.4c0-4.1-0.9-7.9-5.5-8.8
		c-4.6-0.9-7.1,1.8-8.3,5.9c-0.8,15-0.1,30-0.4,45c-0.1,3.3,0.6,6.6-0.5,9.8c-16.9,10.8-35.4,15.5-55.2,15.4
		c-19.5-0.1-37.7-4.8-54.3-15.4c-1-2-0.4-4.2-0.5-6.3C200.9,315.2,201.6,299.1,200.8,283z"/>
	<path class="st3" d="M252.3,176.2c1.3,4.8-1.7,4.5-5.2,3.6c-17.6-4.2-27.7-16.5-34.6-32.1c-4.2-9.4-6.3-19.4-7.6-29.6
		c-0.3-2.2,0.8-3,2.4-3.7c10.9-5.1,21.9-10,32.7-15.3c2.7-1.3,4.4-0.3,6.4,0.9c12.6,7.1,25.7,12.6,40.1,15c6,1,12.1,1.7,18.3,1.5
		c1.6-0.1,3.2-0.5,2.9,2.5c-1.5,13.8-5.5,26.8-12.7,38.8c-1.4,2.3-2.4,3.2-5.6,1.9c-8.5-3.5-17.5-3.3-26.2-0.5
		C256,161.3,252.3,167.8,252.3,176.2z"/>
	<path class="st4" d="M289.9,101.4c-13.6-1.1-25.8-6.7-37.2-13.6c-6.7-4.1-12-4.7-19-0.8c-9,5-18.7,8.8-28.1,13.1
		c-1.3-3.8,0.1-7.8-0.8-11.7c2.5-19.2,12.3-33.1,29.6-41.8c6.6-3.3,13.9-5.1,20.9-4.9c25.2,0.7,46.7,15.5,51.9,43.3
		c0.2,1.1,0.4,2.3,0.6,3.4c-0.8,4.7,0.5,9.5-0.7,14.1c-4,1.4-8-0.5-12-0.3C293.5,101.3,291.6,102.3,289.9,101.4z"/>
	<path class="st1" d="M91.2,419.3c0,9.5-0.1,19,0.1,28.4c0,2.8-0.4,4.1-3.7,4c-10.1-0.3-20.2,0-30.4-0.2c-15.7-0.3-29-13-30.8-29.5
		c-1.6-15,9.7-31.1,24.6-34.2c12.6-2.6,25.5-0.7,38.2-1.1c2.8-0.1,2,2.2,2,3.6C91.3,400,91.2,409.7,91.2,419.3z"/>
	<path class="st5" d="M152.9,223.4c2.8-15.1,9.2-28.6,18.1-40.8c5-6.9,10.9-12.9,17.5-18.4c2.1-1.7,4.1-3.5,7.3-3.8
		c5.5-0.4,9.2,0.8,11.9,6.2c3.2,6.2,8.1,11.5,13.9,15.5c3.6,2.4,3.5,5.5,2.9,8.6c-0.6,2.7-3.8,1.9-5.8,2.3c-17.9,3-35,7.9-50.5,17.7
		C162.5,214.2,157.5,218.5,152.9,223.4z"/>
	<path class="st6" d="M185.3,92.5c0.3-34.2,25.4-61.4,55.6-68.6c37.7-8.9,78.6,17.7,85.2,55.9c1.1,6.6,1.2,13.2,1.3,19.8
		c0,1.6,0.8,3.8-2.4,3.7c-2.9-0.1-3.6-1.4-3.5-4.1c0.2-10.2-0.6-20.1-4.4-29.7c-10.7-27.2-37.9-44.1-68-40.9
		c-30.9,3.3-51.9,27-56.6,52c-1.2,6.3-1.3,12.5-1.2,18.8c0,2.8-0.9,3.9-3.7,3.9c-3.3,0-2.1-2.4-2.2-3.9
		C185.2,97.1,185.3,94.8,185.3,92.5z"/>
	<path class="st5" d="M359.8,222.8c-18-18.6-41.1-25.7-65.5-29.8c-1.1-0.2-2.5-0.1-2.9-1.5c-0.4-1.4,0.7-2,1.6-2.8
		c1-0.9,2.2-1.7,2.7-2.9c1.5-3.6,4.2-3.9,7.6-3.8c5.8,0.3,11.6-0.2,16.7-3.6c3.8-2.6,6.5-6.1,8.3-10.8
		C344.7,183.1,355.2,201.2,359.8,222.8z"/>
	<path class="st7" d="M239.5,191.9c5.6,1.3,10.5,2.2,15.7,2.4c6.3,0.3,12.4-1.8,18.7-1.3c1.1,0.1,2.5-0.6,3.1,0.7
		c0.7,1.4-0.1,2.5-1.1,3.5c-5.4,5.8-10.9,11.6-16.3,17.4c-1.2,1.3-2,1.9-3.5,0.2c-5.6-6.1-11.2-12.1-16.9-18.1
		c-1.2-1.3-0.9-2.7-0.7-4.2C238.7,191.5,239.5,191.9,239.5,191.9z"/>
	<path class="st8" d="M359.9,386.8c-1.9,1.6-4.1,0.9-6.2,0.9c-80.4,0-160.8,0-241.3,0c-6.5,0-6.5,0-6.5,6.4c0,3.8,0.3,7.7-0.1,11.5
		c-0.5,4.7,1,6.2,5.9,6.2c34.7-0.2,69.3-0.1,104-0.1c19.7,0,39.5,0,59.2,0c1.8,0,3.7-0.6,5.2,0.8c-38.8,0-77.6,0.1-116.4,0.1
		c-18.2,0-36.5-0.1-54.7,0.1c-3.2,0-4.3-0.7-4.2-4.1c0.3-6,0.3-12,0-17.9c-0.2-3.5,1.2-4,4.2-4C192.7,386.8,276.3,386.8,359.9,386.8
		z"/>
	<path class="st2" d="M248,226.9c-0.7,0.4-1.6,0.8-2.4,1.4c-3.4,2.9-6.7,5.9-10,8.9c-2.1,2-2.7,1.3-3.4-1.2c-2.5-9-5.3-17.9-8-26.9
		c-0.3-1.1-1.8-2.4,0.2-3.3c1.5-0.7,3.3-1.4,4.7,0c6,6.3,11.8,12.6,17.7,19C247.3,225.1,247.4,225.6,248,226.9z"/>
	<path class="st2" d="M288.8,206c1.9,0.1,4-0.3,2.7,3.5c-3,8.7-5.6,17.5-7.9,26.4c-1,3.8-2.1,2.7-4,0.9c-1.4-1.4-2.9-2.7-4.4-4
		c-7.6-6.7-7.6-6.7-0.8-14c3.5-3.7,7-7.4,10.6-11.2C285.9,206.5,286.8,205.2,288.8,206z"/>
	<path class="st9" d="M275.7,171.2c1.8,0,3.7,0.1,5.5,0c2.9-0.1,4.6,1.5,4.5,4.1c0,2.3-1.6,3.9-4.2,3.9c-3.8,0-7.6,0-11.5,0
		c-2.6,0-4.2-1.6-4.3-3.9c-0.1-2.6,1.6-4.2,4.5-4.1C272.1,171.2,273.9,171.2,275.7,171.2z"/>
	<path class="st10" d="M304.4,167.9c2.6-3,2.7-7.8,8.2-7.4c3.3,0.2,3.1,1.9,2.2,3.8C312.8,168.7,309,168.6,304.4,167.9z"/>
	<path class="st11" d="M200.8,283c1.4,1.6,0.8,3.5,0.8,5.2c0.1,16.5,0,33,0,49.5c-1.4-0.4-1-1.5-1-2.4
		C200.6,317.8,200.7,300.4,200.8,283z"/>
	<path class="st12" d="M311.1,337.7c0-16.5,0-33,0-49.5c0-1.8-0.6-3.7,0.8-5.2c0.1,17.4,0.1,34.9,0.1,52.3
		C312.1,336.2,312.5,337.3,311.1,337.7z"/>
	<path class="st8" d="M106,426.5c0,8.3,0,16.6,0,25c-2-1.4-1-3.6-0.9-5.3C105.5,439.6,103.7,433,106,426.5z"/>
	<path class="st13" d="M263.3,366.9c-4.6,1.3-9.2,1.3-13.9,0C254.1,366.9,258.7,366.9,263.3,366.9z"/>
	<path class="st14" d="M307.2,102.5c0.3-4.7-0.9-9.5,0.7-14.1C307.9,93.1,309.2,97.9,307.2,102.5z"/>
	<path class="st15" d="M204.8,88.4c1.6,3.8,0.3,7.8,0.8,11.7C203.4,96.3,204.9,92.3,204.8,88.4z"/>
	<path class="st1" d="M336.1,130.1c-0.3-6-5.5-11.8-12.2-13.6c-1.9-0.5-2.6,0.4-2.8,2.3c-0.8,9.4-3,18.5-5.8,27.5
		c2.8,1.8,5.7,0.8,8.6,0.7c0,0,0,0,0,0c0,0,0,0,0,0c0.5-0.2,0.9-0.3,1.4-0.5C333.2,143.3,336.5,138.3,336.1,130.1z"/>
	<path class="st1" d="M197.4,145.4C197.4,145.4,197.4,145.4,197.4,145.4c-3-8.1-4.1-16.7-5.8-25.1c0.1-2,0.8-4.5-2.8-3.7
		c0,0,0,0,0,0c0,0,0,0,0,0c-3.9,1.1-7.4,2.9-9.7,6.4c-6.3,9.5-2.1,19.8,9.7,24.1C191.6,146.4,195.1,149.3,197.4,145.4
		C197.4,145.4,197.4,145.4,197.4,145.4z"/>
	<path class="st16" d="M289.9,101.4c1.8,0.1,3.7-0.7,5.3,0.8C293.4,102.3,291.5,102.7,289.9,101.4z"/>
	<path class="st0" d="M317.5,412.6c4.6,0,9.3-0.1,13.9,0c4.4,0.1,7.9,3,7.6,6.8c-0.3,4.3-2.9,6.6-7.2,6.7c-9.8,0.1-19.6,0.2-29.3,0
		c-4.8-0.1-7.4-3-7.2-7c0.2-3.9,3.1-6.3,7.9-6.4C307.9,412.6,312.7,412.6,317.5,412.6z"/>
	<path class="st0" d="M257.7,275c-5,0-8.6-3.4-8.2-6.9c0.5-3.8,2.6-6.3,6.8-6.3c3.9,0,7.3,3.2,6.8,6.8
		C262.6,272.3,260.5,274.9,257.7,275z"/>
	<path class="st0" d="M254.4,292.8c6.2-0.1,8.2,2.6,8.7,6.3c0.5,3.5-3,6.8-6.8,6.8c-4.3,0-6.3-2.7-6.8-6.4
		C249,296,252.5,292.8,254.4,292.8z"/>
	<path class="st0" d="M256.1,337c-3.7-0.1-6.7-3-6.7-6.5c0-3.6,3.3-6.7,7.1-6.6c3.5,0.1,6.7,3.2,6.7,6.5
		C263.3,334,260,337,256.1,337z"/>
	<path class="st0" d="M78.2,419.4c0,10.8-8.4,19.2-19.1,19.2c-10.8,0-19.7-8.8-19.6-19.4c0.1-10.4,9-19.3,19.4-19.4
		C69.4,399.7,78.2,408.6,78.2,419.4z"/>
	<path class="st17" d="M58.7,424.9c-3.4-0.4-5.5-2.4-5.3-5.9c0.2-3.4,2.4-5.5,5.9-5.3c3.2,0.2,5.1,2.3,5.1,5.6
		C64.4,423,62.3,424.7,58.7,424.9z"/>
</g>
</svg>
