<?xml version="1.0" encoding="UTF-8"?><svg id="a" xmlns="http://www.w3.org/2000/svg" xmlns:xlink="http://www.w3.org/1999/xlink" viewBox="0 0 512 512"><defs><style>.c{fill:url(#b);}</style><linearGradient id="b" x1="72.07" y1="256" x2="439.93" y2="256" gradientTransform="matrix(1, 0, 0, 1, 0, 0)" gradientUnits="userSpaceOnUse"><stop offset="0" stop-color="#00a8b5"/><stop offset=".09" stop-color="#07a7b0"/><stop offset=".22" stop-color="#1da7a3"/><stop offset=".39" stop-color="#41a78d"/><stop offset=".59" stop-color="#73a770"/><stop offset=".8" stop-color="#b2a64a"/><stop offset="1" stop-color="#f5a623"/></linearGradient></defs><path class="c" d="M426.68,281.91c-2.81,50.14-6.17,100.26-9.34,150.38-2.62,41.36-30.47,71.83-71.52,78.37-.8,.13-1.56,.52-2.34,.79H155.42c-6.59-1.67-13.46-2.64-19.72-5.14-33.44-13.34-51.59-38.29-54.07-74.02-3.47-50.1-6.62-100.23-9.43-150.38-1.59-28.44,10.38-50.34,34.87-64.92,14.47-8.61,24.82-20.2,30.91-35.91,7.3-18.83,22.63-28.97,42.94-28.98,45.68-.02,91.35-.02,137.03,0,20.31,.01,35.63,10.16,42.93,28.99,6.09,15.71,16.5,27.25,30.95,35.87,24.48,14.59,36.43,36.52,34.84,64.95ZM165.93,48.15c15.32,.4,30.67,.11,46,.12,1.76,0,3.51,0,5.63,0v39.63h64.08V32.02h143.58V.55H120.17c-.81,24.98,20.27,46.94,45.76,47.6Zm15.9,87.71h135.42v-31.33H181.84v31.33Zm255.35-43.99c-6.04-15.03-16.19-27.31-27.65-39.56-13.01,14.2-25.84,28.24-29.92,47.45-4.71,22.16,15.7,40.91,37.67,35.32,18.55-4.72,27.59-24.08,19.9-43.22Z"/></svg>